<svg xmlns="http://www.w3.org/2000/svg" width="18" height="18" viewBox="0 0 18 18" fill="none">
  <mask id="mask0_561_2887" style="mask-type:alpha" maskUnits="userSpaceOnUse" x="0" y="0" width="18" height="18">
    <rect width="18" height="18" fill="#D9D9D9"/>
  </mask>
  <g mask="url(#mask0_561_2887)">
    <path d="M5.25 12.75H7.5C7.7125 12.75 7.89063 12.6781 8.03438 12.5344C8.17813 12.3906 8.25 12.2125 8.25 12C8.25 11.7875 8.17813 11.6094 8.03438 11.4656C7.89063 11.3219 7.7125 11.25 7.5 11.25H5.25C5.0375 11.25 4.85938 11.3219 4.71562 11.4656C4.57187 11.6094 4.5 11.7875 4.5 12C4.5 12.2125 4.57187 12.3906 4.71562 12.5344C4.85938 12.6781 5.0375 12.75 5.25 12.75ZM5.25 9.75H7.5C7.7125 9.75 7.89063 9.67813 8.03438 9.53438C8.17813 9.39063 8.25 9.2125 8.25 9C8.25 8.7875 8.17813 8.60938 8.03438 8.46563C7.89063 8.32188 7.7125 8.25 7.5 8.25H5.25C5.0375 8.25 4.85938 8.32188 4.71562 8.46563C4.57187 8.60938 4.5 8.7875 4.5 9C4.5 9.2125 4.57187 9.39063 4.71562 9.53438C4.85938 9.67813 5.0375 9.75 5.25 9.75ZM12.75 5.25C12.5375 5.25 12.3594 5.32187 12.2156 5.46562C12.0719 5.60938 12 5.7875 12 6V9C12 9.2125 12.0719 9.39063 12.2156 9.53438C12.3594 9.67813 12.5375 9.75 12.75 9.75C12.9625 9.75 13.1406 9.67813 13.2844 9.53438C13.4281 9.39063 13.5 9.2125 13.5 9V6C13.5 5.7875 13.4281 5.60938 13.2844 5.46562C13.1406 5.32187 12.9625 5.25 12.75 5.25ZM5.25 6.75H7.5C7.7125 6.75 7.89063 6.67812 8.03438 6.53438C8.17813 6.39062 8.25 6.2125 8.25 6C8.25 5.7875 8.17813 5.60938 8.03438 5.46562C7.89063 5.32187 7.7125 5.25 7.5 5.25H5.25C5.0375 5.25 4.85938 5.32187 4.71562 5.46562C4.57187 5.60938 4.5 5.7875 4.5 6C4.5 6.2125 4.57187 6.39062 4.71562 6.53438C4.85938 6.67812 5.0375 6.75 5.25 6.75ZM3 15.75C2.5875 15.75 2.23438 15.6031 1.94063 15.3094C1.64688 15.0156 1.5 14.6625 1.5 14.25V3.75C1.5 3.3375 1.64688 2.98438 1.94063 2.69063C2.23438 2.39688 2.5875 2.25 3 2.25H15C15.4125 2.25 15.7656 2.39688 16.0594 2.69063C16.3531 2.98438 16.5 3.3375 16.5 3.75V14.25C16.5 14.6625 16.3531 15.0156 16.0594 15.3094C15.7656 15.6031 15.4125 15.75 15 15.75H3ZM3 14.25H15V3.75H3V14.25ZM12.75 12.75C12.9625 12.75 13.1406 12.6781 13.2844 12.5344C13.4281 12.3906 13.5 12.2125 13.5 12C13.5 11.7875 13.4281 11.6094 13.2844 11.4656C13.1406 11.3219 12.9625 11.25 12.75 11.25C12.5375 11.25 12.3594 11.3219 12.2156 11.4656C12.0719 11.6094 12 11.7875 12 12C12 12.2125 12.0719 12.3906 12.2156 12.5344C12.3594 12.6781 12.5375 12.75 12.75 12.75Z" fill="#050505"/>
  </g>
</svg>