<svg xmlns="http://www.w3.org/2000/svg" width="65" height="12" viewBox="0 0 65 12" fill="none">
  <path d="M0 2.55249V0H10.3787V2.55249H6.75281V12H3.6259V2.55249H0Z" fill="#050505"/>
  <path d="M13.1064 12H9.68014L13.6886 0H17.9964L21.9882 12H18.5786L17.855 9.64641H13.8216L13.1064 12ZM14.5535 7.25967H17.1232L15.8841 3.23204H15.7843L14.5535 7.25967Z" fill="#050505"/>
  <path d="M23.1858 12V0H26.346V9.44751H31.2526V12H23.1858Z" fill="#050505"/>
  <path d="M32.6164 12V0H35.7766V4.90608H35.9429L39.6686 0H43.3777L39.2528 5.35359L43.4608 12H39.6686L36.891 7.44199L35.7766 8.8674V12H32.6164Z" fill="#050505"/>
  <path d="M44.3756 12V0H52.9747V2.55249H47.5358V4.72376H52.5256V7.27624H47.5358V9.44751H52.958V12H44.3756Z" fill="#050505"/>
  <path d="M65 0V12H62.3554L57.8813 5.51934H57.7981V12H54.6379V0H57.3324L61.74 6.44751H61.8398V0H65Z" fill="#050505"/>
</svg>