<svg xmlns="http://www.w3.org/2000/svg" width="18" height="18" viewBox="0 0 18 18" fill="none">
<mask id="mask0_215_5733" style="mask-type:alpha" maskUnits="userSpaceOnUse" x="0" y="0" width="18" height="18">
<rect width="18" height="18" fill="#D9D9D9"/>
</mask>
<g mask="url(#mask0_215_5733)">
<path d="M9.4501 9.0001L6.5251 6.0751C6.3876 5.9376 6.31885 5.7626 6.31885 5.5501C6.31885 5.3376 6.3876 5.1626 6.5251 5.0251C6.6626 4.8876 6.8376 4.81885 7.0501 4.81885C7.2626 4.81885 7.4376 4.8876 7.5751 5.0251L11.0251 8.4751C11.1001 8.5501 11.1532 8.63135 11.1845 8.71885C11.2157 8.80635 11.2313 8.9001 11.2313 9.0001C11.2313 9.1001 11.2157 9.19385 11.1845 9.28135C11.1532 9.36885 11.1001 9.4501 11.0251 9.5251L7.5751 12.9751C7.4376 13.1126 7.2626 13.1813 7.0501 13.1813C6.8376 13.1813 6.6626 13.1126 6.5251 12.9751C6.3876 12.8376 6.31885 12.6626 6.31885 12.4501C6.31885 12.2376 6.3876 12.0626 6.5251 11.9251L9.4501 9.0001Z" fill="#050505"/>
</g>
</svg>